<?xml version="1.0" standalone="no"?>
<!DOCTYPE svg PUBLIC "-//W3C//DTD SVG 20010904//EN"
 "http://www.w3.org/TR/2001/REC-SVG-20010904/DTD/svg10.dtd">
<svg version="1.0" xmlns="http://www.w3.org/2000/svg"
 width="736.000000pt" height="700.000000pt" viewBox="0 0 736.000000 700.000000"
 preserveAspectRatio="xMidYMid meet">

<g transform="translate(0.000000,700.000000) scale(0.100000,-0.100000)"
fill="#000000" stroke="none">
<path d="M2894 6338 c-42 -46 -107 -135 -135 -186 -24 -44 -24 -44 -70 -38
-39 5 -51 2 -92 -25 -55 -36 -159 -140 -178 -178 -8 -14 -23 -33 -34 -43 -12
-9 -48 -72 -82 -140 -85 -170 -97 -200 -128 -303 -15 -49 -42 -129 -60 -177
-19 -48 -37 -104 -41 -125 -4 -21 -14 -54 -22 -73 -20 -49 -122 -339 -132
-375 -9 -36 -93 -210 -152 -317 -39 -69 -82 -124 -205 -259 -24 -25 -43 -51
-43 -57 0 -6 -16 -23 -36 -38 -19 -15 -50 -41 -67 -58 -18 -17 -52 -47 -76
-66 -64 -52 -106 -98 -169 -191 -31 -46 -63 -90 -70 -98 -7 -7 -46 -64 -87
-125 -41 -61 -101 -149 -133 -196 -86 -122 -185 -277 -215 -335 -80 -155 -130
-274 -159 -381 -31 -116 -32 -125 -31 -314 0 -144 5 -216 18 -275 36 -171 94
-318 156 -396 16 -20 29 -41 29 -47 0 -20 95 -139 168 -209 73 -71 137 -118
279 -204 40 -24 96 -59 125 -76 29 -18 64 -33 78 -33 14 0 34 -6 45 -14 11 -7
47 -19 80 -26 33 -7 100 -25 150 -41 126 -40 225 -59 305 -59 68 0 197 24 213
39 12 12 -53 47 -130 71 -108 33 -167 77 -301 223 -71 78 -81 95 -100 160 -53
184 -84 397 -82 562 1 66 1 134 1 150 -1 42 47 368 59 400 5 14 14 55 20 92 6
36 19 91 30 122 10 31 26 88 35 126 19 74 35 114 134 328 23 49 41 95 41 103
0 8 35 50 78 92 87 85 215 235 250 291 12 20 38 66 57 103 19 36 39 70 46 73
6 4 19 27 30 52 19 44 108 173 120 173 17 0 29 -29 60 -155 17 -65 96 -214
151 -282 28 -34 55 -63 59 -63 9 0 19 26 19 50 0 37 22 31 88 -23 75 -62 92
-78 140 -131 35 -39 70 -46 131 -25 40 14 51 35 44 87 -5 39 6 57 21 33 3 -5
32 -19 63 -31 57 -23 93 -46 93 -61 0 -4 -24 -21 -52 -38 -49 -27 -148 -114
-148 -128 0 -3 -20 -28 -45 -54 -28 -30 -43 -54 -39 -63 4 -9 0 -18 -9 -22 -8
-3 -21 -19 -27 -35 -7 -16 -16 -29 -20 -29 -4 0 -10 -10 -13 -21 -4 -14 -11
-20 -21 -16 -10 4 -24 -10 -45 -46 -17 -29 -56 -79 -88 -113 -64 -68 -249
-209 -302 -231 -76 -32 -221 -146 -221 -173 0 -6 4 -19 10 -29 7 -15 2 -25
-25 -50 -42 -38 -44 -55 -8 -78 16 -10 32 -23 36 -30 4 -7 31 -25 59 -39 28
-14 52 -34 55 -44 6 -22 53 -43 94 -42 28 1 29 -1 29 -41 0 -23 -4 -49 -10
-57 -14 -22 7 -40 46 -40 19 0 34 -5 34 -11 0 -7 -17 -31 -37 -54 -66 -75
-160 -219 -167 -255 -19 -100 -21 -94 24 -138 55 -54 88 -68 211 -92 57 -11
106 -26 110 -32 10 -16 18 -90 18 -171 0 -48 9 -97 31 -170 28 -91 37 -107 80
-149 37 -36 58 -48 92 -53 47 -7 115 -2 193 14 130 25 133 25 173 -17 56 -58
119 -136 143 -176 29 -50 79 -186 79 -216 0 -46 34 -87 78 -95 81 -13 150 25
207 115 15 24 33 40 45 40 20 0 70 63 70 88 0 16 -58 131 -74 148 -7 6 -20 47
-30 90 -10 44 -30 117 -46 164 -38 116 -60 194 -60 217 0 10 -6 30 -13 44 -8
14 -17 55 -21 92 -8 83 -3 86 92 58 38 -12 85 -21 105 -21 31 0 38 4 43 25 3
14 4 35 1 47 -3 12 -2 28 3 37 5 10 3 38 -6 70 -16 64 -8 81 42 81 31 0 33 -2
36 -36 3 -38 10 -44 68 -62 52 -16 240 -18 250 -2 6 10 25 10 94 0 112 -17
140 -7 130 45 -4 25 -2 39 10 51 13 12 14 19 5 30 -6 7 -13 44 -15 82 -3 57
-10 81 -44 143 -23 41 -49 83 -59 94 -10 11 -45 63 -78 115 -183 291 -206 349
-201 499 l3 97 -44 69 c-25 39 -50 75 -57 80 -6 6 -16 53 -22 105 -12 104 -35
190 -64 232 -10 14 -18 29 -18 33 0 4 -13 27 -30 52 -18 27 -30 57 -30 77 0
37 -4 36 158 56 40 5 88 16 105 24 36 16 111 29 120 20 3 -3 -9 -46 -26 -94
-17 -49 -29 -91 -26 -95 3 -3 47 13 97 35 91 39 234 145 338 249 45 44 66 49
110 26 16 -8 42 -15 57 -15 46 0 139 31 162 54 11 11 33 29 48 39 21 14 27 25
27 53 0 28 9 46 43 84 50 56 97 179 97 254 0 59 -46 185 -78 214 -28 27 -27
37 23 152 56 130 77 198 82 268 5 70 17 91 30 55 17 -48 63 -69 81 -37 7 12
19 14 61 8 63 -8 76 -29 67 -114 -3 -30 -1 -107 4 -170 6 -63 15 -169 20 -235
5 -66 16 -153 24 -193 9 -40 16 -90 16 -111 0 -21 8 -67 19 -102 40 -140 51
-209 56 -354 8 -226 14 -283 41 -365 23 -68 110 -252 154 -325 9 -16 20 -61
24 -98 4 -38 13 -85 21 -105 8 -20 40 -140 73 -267 80 -311 93 -363 103 -415
17 -82 27 -373 19 -550 -9 -192 -18 -229 -84 -353 -20 -37 -36 -73 -36 -81 0
-27 -155 -135 -194 -136 -10 0 -45 16 -77 36 -77 47 -142 131 -170 221 -12 37
-25 78 -30 91 -9 22 -35 39 -45 30 -14 -14 -45 -250 -41 -311 4 -66 4 -68 -17
-62 -71 22 -68 24 -61 -41 11 -86 67 -159 190 -246 121 -86 188 -103 390 -102
170 2 244 14 330 54 33 16 87 40 120 54 88 36 201 100 238 135 17 17 55 52 83
78 117 111 217 280 253 430 40 168 42 222 21 450 -11 114 -24 226 -29 248 -8
38 -18 114 -42 350 -12 116 -32 207 -64 285 -12 30 -31 89 -40 130 -10 41 -21
84 -26 95 -4 11 -15 43 -22 71 -15 52 -70 168 -92 194 -17 20 -70 113 -99 175
-58 120 -96 208 -96 224 0 18 -47 123 -59 131 -8 5 -61 132 -61 145 0 3 -22
52 -50 108 -67 139 -106 249 -119 332 -5 39 -19 115 -30 170 -51 252 -63 329
-71 460 -18 282 -85 559 -178 735 -84 158 -163 255 -251 307 -38 23 -59 27
-170 33 -69 4 -127 3 -129 -1 -6 -15 -29 -10 -36 7 -3 9 -6 41 -7 72 0 31 -6
95 -12 141 -13 95 -31 118 -65 88 -15 -14 -29 -16 -61 -11 l-41 7 -1 -59 c-3
-109 2 -338 8 -391 7 -68 -8 -69 -42 -3 -14 28 -34 59 -45 70 -11 11 -28 37
-40 59 -21 43 -136 171 -152 171 -5 0 -29 14 -53 30 -24 17 -46 30 -49 30 -2
0 -43 22 -91 50 -47 27 -110 56 -138 65 -63 18 -268 45 -340 45 -29 0 -92 7
-142 16 -139 25 -411 34 -480 16 -22 -6 -83 -16 -135 -21 -52 -6 -120 -13
-150 -17 -49 -5 -57 -4 -76 17 -11 13 -27 44 -34 68 -8 25 -24 58 -35 75 -18
26 -27 31 -58 29 -27 -2 -37 2 -37 12 0 12 -28 35 -42 35 -2 0 -18 -15 -34
-32z m-104 -2493 c0 -8 4 -23 9 -33 5 -9 23 -46 40 -82 23 -48 45 -75 82 -103
27 -21 56 -40 64 -44 21 -8 18 -18 -7 -30 -20 -9 -32 -3 -89 43 -73 59 -78 67
-114 177 -30 93 -30 87 -5 87 11 0 20 -7 20 -15z"/>
</g>
</svg>
